<?xml version="1.0" encoding="UTF-8" standalone="no"?>
<svg
   xmlns:dc="http://purl.org/dc/elements/1.1/"
   xmlns:cc="http://creativecommons.org/ns#"
   xmlns:rdf="http://www.w3.org/1999/02/22-rdf-syntax-ns#"
   xmlns:svg="http://www.w3.org/2000/svg"
   xmlns="http://www.w3.org/2000/svg"
   xmlns:xlink="http://www.w3.org/1999/xlink"
   xmlns:sodipodi="http://sodipodi.sourceforge.net/DTD/sodipodi-0.dtd"
   xmlns:inkscape="http://www.inkscape.org/namespaces/inkscape"
   width="1314.4178"
   height="689"
   viewBox="0 0 1314.4178 689"
   version="1.1"
   id="svg2"
   inkscape:version="0.91+devel+osxmenu r12922"
   sodipodi:docname="map.svg">
  <metadata
     id="metadata327">
    <rdf:RDF>
      <cc:Work
         rdf:about="">
        <dc:format>image/svg+xml</dc:format>
        <dc:type
           rdf:resource="http://purl.org/dc/dcmitype/StillImage" />
        <dc:title>Home Page</dc:title>
      </cc:Work>
    </rdf:RDF>
  </metadata>
  <sodipodi:namedview
     pagecolor="#ffffff"
     bordercolor="#666666"
     borderopacity="1"
     objecttolerance="10"
     gridtolerance="10"
     guidetolerance="10"
     inkscape:pageopacity="0"
     inkscape:pageshadow="2"
     inkscape:window-width="1680"
     inkscape:window-height="943"
     id="namedview325"
     showgrid="false"
     inkscape:zoom="0.5"
     inkscape:cx="690.58471"
     inkscape:cy="512.36506"
     inkscape:window-x="0"
     inkscape:window-y="23"
     inkscape:window-maximized="0"
     inkscape:current-layer="svg2"
     fit-margin-top="0"
     fit-margin-left="0"
     fit-margin-right="0"
     fit-margin-bottom="0"
     showguides="false"
     inkscape:guide-bbox="true" />
  <!-- Generator: Sketch 48.2 (47327) - http://www.bohemiancoding.com/sketch -->
  <title
     id="title4">Home Page</title>
  <desc
     id="desc6">Created with Sketch.</desc>
  <defs
     id="defs8">
    <path
       d="M 1454.7795,646 C 1212.1481,584.35589 969.82989,553.53384 727.82485,553.53384 485.81981,553.53384 243.50159,584.35589 0.8701899,646 L 1.0047131,0.03354378 l 1453.7747869,0 0,645.96645622 z"
       id="path-1"
       inkscape:connector-curvature="0" />
    <linearGradient
       x1="501.91833"
       y1="-65.804008"
       x2="501.91833"
       y2="527.60211"
       id="linearGradient-3"
       gradientTransform="scale(1.4464505,0.69134755)"
       gradientUnits="userSpaceOnUse">
      <stop
         stop-color="#FFFFFF"
         offset="0%"
         id="stop12" />
      <stop
         stop-color="#FFFFFF"
         stop-opacity="0"
         offset="100%"
         id="stop14" />
    </linearGradient>
    <radialGradient
       cx="891.36731"
       cy="62.848583"
       fx="891.36731"
       fy="62.848583"
       r="860.84924"
       gradientTransform="scale(1.3497525,0.74087656)"
       id="radialGradient-4"
       gradientUnits="userSpaceOnUse">
      <stop
         stop-color="#FFFFFF"
         offset="0%"
         id="stop17" />
      <stop
         stop-color="#FFFFFF"
         stop-opacity="0"
         offset="100%"
         id="stop19" />
    </radialGradient>
    <circle
       id="path-5"
       cx="399.5"
       cy="134.5"
       r="14.5" />
    <circle
       id="path-6"
       cx="362.5"
       cy="144.5"
       r="10.5" />
    <circle
       id="path-7"
       cx="416.5"
       cy="77.5"
       r="5.5" />
    <circle
       id="path-8"
       cx="491.5"
       cy="519.5"
       r="5.5" />
    <circle
       id="path-9"
       cx="395.5"
       cy="58.5"
       r="5.5" />
    <ellipse
       id="path-10"
       cx="392.5"
       cy="187"
       rx="7.5"
       ry="7" />
    <circle
       id="path-11"
       cx="370.5"
       cy="278.5"
       r="5.5" />
    <circle
       id="path-12"
       cx="452.5"
       cy="83.5"
       r="5.5" />
    <circle
       id="path-13"
       cx="462.5"
       cy="134.5"
       r="5.5" />
    <circle
       id="path-14"
       cx="178.5"
       cy="72.5"
       r="5.5" />
    <circle
       id="path-15"
       cx="473.5"
       cy="374.5"
       r="5.5" />
    <circle
       id="path-16"
       cx="396"
       cy="90"
       r="7" />
    <circle
       id="path-17"
       cx="370"
       cy="95"
       r="6" />
    <circle
       id="path-18"
       cx="321.5"
       cy="76.5"
       r="9.5" />
    <rect
       id="path-19"
       x="723"
       y="233.1037"
       width="640"
       height="364.85794"
       rx="8" />
    <filter
       x="-0.045000002"
       y="-0.051999997"
       width="1.081"
       height="1.143"
       filterUnits="objectBoundingBox"
       id="filter-20">
      <feOffset
         dx="-3"
         dy="7"
         in="SourceAlpha"
         result="shadowOffsetOuter1"
         id="feOffset37" />
      <feGaussianBlur
         stdDeviation="7.5"
         in="shadowOffsetOuter1"
         result="shadowBlurOuter1"
         id="feGaussianBlur39" />
      <feColorMatrix
         values="0 0 0 0 0.694488733   0 0 0 0 0.694488733   0 0 0 0 0.694488733  0 0 0 0.541779891 0"
         type="matrix"
         in="shadowBlurOuter1"
         id="feColorMatrix41" />
    </filter>
  </defs>
  <g
     style="fill:none;fill-rule:evenodd;stroke:none;stroke-width:1"
     transform="translate(203.08369)"
     id="egypte051">
    <path
       style="fill:#095654;fill-rule:nonzero"
       inkscape:connector-curvature="0"
       id="path4316"
       d="m 355.38914,687.79986 c 1.67939,-0.8295 3.59945,-1.5172 4.26678,-1.52822 1.50977,-0.0249 2.69933,-2.55628 3.40079,-7.23679 0.41138,-2.74495 0.96533,-3.79108 2.33908,-4.41738 1.16203,-0.52978 1.96803,-1.71662 2.27398,-3.34843 0.33332,-1.77784 1.09851,-2.80442 2.5792,-3.46023 1.6637,-0.73687 2.4448,-1.98727 3.72398,-5.9614 1.30136,-4.04301 2.44442,-5.84489 5.83045,-9.19089 3.69741,-3.6537 4.2158,-4.53823 4.24498,-7.24333 0.077,-7.13654 1.11573,-9.7473 5.42766,-13.64185 2.2446,-2.02733 6.05617,-4.91181 8.47017,-6.40995 3.5685,-2.21464 4.53409,-3.26279 5.16478,-5.60639 0.48533,-1.80349 1.84273,-3.76756 3.6262,-5.24686 l 2.8505,-2.36436 -3.28955,-2.91565 c -2.59948,-2.30404 -3.07943,-3.09015 -2.28791,-3.74745 0.73363,-0.60922 1.39752,-0.54212 2.48124,0.2508 0.8138,0.59542 2.76463,1.08258 4.33519,1.08258 2.30156,0 3.17192,-0.44456 4.48623,-2.29147 0.89687,-1.26031 2.16309,-2.29147 2.81381,-2.29147 0.65072,0 2.35684,-1.03116 3.79138,-2.29147 1.43454,-1.26031 3.06951,-2.29147 3.63326,-2.29147 0.56376,0 1.45265,-0.51558 1.97531,-1.14573 1.44619,-1.74362 9.30939,-1.56331 10.95041,0.2511 0.69484,0.76826 1.26335,1.67292 1.26335,2.01036 0,0.33743 0.70534,1.75546 1.56741,3.15117 1.37251,2.22213 1.78191,2.43987 3.29252,1.75116 0.94882,-0.43256 2.3529,-1.9529 3.12017,-3.37851 0.91325,-1.69683 2.3062,-2.89291 4.03327,-3.46324 2.99581,-0.9893 4.88564,-4.39243 4.25943,-7.67021 -0.27612,-1.44531 0.33773,-3.0362 2.21036,-5.72848 1.49243,-2.14566 3.31534,-6.32053 4.29567,-9.83803 1.75415,-6.29407 2.62544,-7.46879 8.00438,-10.79197 1.60554,-0.99192 3.0236,-1.38394 3.63608,-1.00517 0.55223,0.3415 1.27808,0.45145 1.61301,0.24432 1.12013,-0.69269 0.6264,-2.43997 -1.35536,-4.79659 -1.22413,-1.45568 -1.79808,-2.86003 -1.52314,-3.72683 1.24075,-3.91163 -4.52032,-5.3884 -10.03175,-2.5715 -4.1474,2.11975 -6.32813,2.14593 -6.32813,0.076 0,-1.06694 0.84789,-1.92111 2.65838,-2.67804 2.93677,-1.2278 4.08698,-3.8279 2.7769,-6.27728 -1.71757,-3.21126 1.59749,-3.34541 4.84484,-0.19605 1.65355,1.60366 2.81856,2.14112 3.98151,1.83681 1.45919,-0.38181 1.70369,-1.1473 2.17509,-6.80993 0.47504,-5.70623 0.36075,-6.65559 -1.08256,-8.99233 -2.00769,-3.25048 -2.02436,-4.4143 -0.087,-6.07414 0.83969,-0.71941 1.52672,-1.96204 1.52672,-2.76141 0,-0.79938 0.49603,-1.64387 1.1023,-1.87666 0.60627,-0.23279 1.51211,-1.79188 2.01298,-3.46466 0.76061,-2.54024 0.70477,-3.55636 -0.33894,-6.16642 -1.45315,-3.63398 -1.57846,-6.50518 -0.42804,-9.80728 0.63803,-1.83139 0.56805,-2.92333 -0.31326,-4.88787 -1.85788,-4.14141 -1.88472,-4.65551 -0.45094,-8.64025 0.75581,-2.10051 1.59428,-5.37117 1.86327,-7.26815 0.41137,-2.901 0.20667,-3.80826 -1.2883,-5.70974 -1.53119,-1.94755 -1.83026,-3.37685 -2.15907,-10.31819 -0.37121,-7.8364 -0.45499,-8.14704 -3.05344,-11.32244 -1.46947,-1.79574 -4.99643,-4.79193 -7.8377,-6.65821 -5.5359,-3.63625 -5.79284,-4.03887 -7.77951,-12.19085 -0.71667,-2.94072 -1.78987,-5.8894 -2.38491,-6.55264 -0.59503,-0.66324 -1.08188,-2.30096 -1.08188,-3.63939 0,-1.92581 0.51759,-2.74928 2.48092,-3.94707 1.3645,-0.83246 2.82443,-1.49966 3.24428,-1.48267 0.41985,0.017 -0.52481,0.71137 -2.09924,1.54305 -2.4569,1.29782 -2.8626,1.88305 -2.8626,4.12931 0,1.43944 0.47694,2.89204 1.05987,3.228 1.00702,0.58036 3.52029,8.83689 3.52029,11.56479 0,1.76345 3.16215,5.01994 7.13892,7.35189 1.82462,1.06995 4.82931,3.7383 6.67708,5.92967 l 3.3596,3.98429 0.43439,8.22651 c 0.379,7.1773 0.65687,8.46347 2.17872,10.08439 1.5423,1.64269 1.68076,2.32031 1.19549,5.85072 -0.30185,2.19607 -1.02464,5.13234 -1.60619,6.52504 -1.38753,3.32282 -1.33722,6.36817 0.15462,9.36045 0.96286,1.93127 1.04131,2.92089 0.38168,4.81427 -1.15905,3.32686 -1.03692,6.1907 0.41931,9.83236 1.53809,3.84641 0.8081,6.84555 -3.11076,12.78052 l -2.66455,4.03536 1.62354,2.83904 c 1.71768,3.00366 2.04853,7.05236 1.08601,13.28948 -0.49682,3.21935 -0.79132,3.62866 -2.95257,4.10364 -2.06104,0.45295 -2.70203,0.19015 -4.53044,-1.85744 -2.77567,-3.1084 -3.68497,-3.02005 -3.14562,0.30563 0.48084,2.96485 -1.03368,5.34826 -4.15831,6.54397 -1.73475,0.66384 -2.38617,2.22271 -0.92883,2.22271 0.43381,0 2.53101,-0.8834 4.66044,-1.96312 6.43701,-3.26386 12.29517,-1.1661 11.01343,3.94382 -0.25362,1.01113 -0.18514,1.83842 0.15219,1.83842 0.97929,0 3.23257,4.27498 3.23257,6.13295 0,1.47594 -0.29633,1.63693 -2.28166,1.23962 -1.5988,-0.31995 -3.14087,0.0437 -5.15268,1.21505 -3.75486,2.18629 -4.40347,3.12521 -5.93723,8.59478 -1.73695,6.19421 -2.24673,7.41124 -4.70448,11.23131 -1.41802,2.20403 -2.12689,4.34024 -2.15431,6.49209 -0.0295,2.31411 -0.56137,3.76157 -1.9102,5.19821 -1.61874,1.72411 -1.66708,1.9149 -0.3606,1.42311 2.42338,-0.91223 3.36694,-2.71324 3.39288,-6.47609 0.0233,-3.38317 0.15885,-3.59345 3.43786,-5.33402 2.45794,-1.30473 3.54662,-2.41806 3.88879,-3.97687 0.6769,-3.08378 2.12303,-3.28117 5.44542,-0.74325 1.59559,1.21885 4.27513,2.67243 5.95453,3.23017 1.67939,0.55776 3.53918,1.19579 4.13286,1.41786 0.62342,0.23319 0.87199,0.0679 0.5884,-0.3912 -0.27006,-0.43724 -1.55494,-1.00788 -2.85529,-1.26811 -2.00686,-0.40162 -2.34323,-0.79181 -2.22507,-2.58108 0.25965,-3.93214 -10e-4,-4.78132 -1.46763,-4.78132 -1.50338,0 -2.37175,-1.40467 -2.37175,-3.83651 0,-1.96251 1.17858,-2.50456 2.98766,-1.37408 2.01131,1.25684 2.47415,0.64838 1.66204,-2.18498 -0.94008,-3.27988 0.12381,-4.8147 2.09815,-3.02686 1.77247,1.60504 2.17648,1.13435 2.52644,-2.94336 0.197,-2.29552 -0.0216,-3.073 -0.88013,-3.12991 -2.18219,-0.14466 -2.3368,-0.31627 -1.57241,-1.7454 0.61614,-1.15197 0.31865,-1.90812 -1.49986,-3.81216 -1.28228,-1.3426 -2.26845,-3.20834 -2.26845,-4.29167 0,-1.57113 0.37003,-1.91651 2.05331,-1.91651 l 2.05332,0 -2.435,-2.3821 c -1.33924,-1.31016 -2.43499,-2.6906 -2.43499,-3.06765 0,-0.37705 1.20229,-1.25922 2.67176,-1.96039 2.24546,-1.07145 2.67175,-1.67163 2.67175,-3.76168 0,-1.36776 -0.31072,-2.67899 -0.6905,-2.91384 -0.37978,-0.23486 -1.79015,-2.37667 -3.13417,-4.75957 -2.24624,-3.98254 -2.37764,-4.58418 -1.62646,-7.44725 l 0.81719,-3.11469 -0.31299,2.90256 c -0.30767,2.8531 1.85543,8.20974 4.51961,11.1923 1.20728,1.35155 1.78882,6.08776 0.92016,7.49413 -0.32061,0.51908 -1.26047,0.94378 -2.08856,0.94378 -2.64187,0 -2.66527,2.28677 -0.0444,4.33914 3.01416,2.36037 3.14614,4.01947 0.30425,3.82479 -1.81585,-0.12439 -2.06386,0.10671 -1.83721,1.71187 0.14412,1.02061 1.11659,2.52826 2.16107,3.35034 1.16491,0.91687 1.76186,2.01953 1.54421,2.85235 -0.22916,0.87685 0.15445,1.49092 1.08321,1.73395 1.09981,0.28778 1.43233,1.0668 1.41377,3.31213 -0.0295,3.57395 -1.81164,6.36919 -3.1847,4.9953 -2.20898,-2.21031 -3.01449,0.54461 -1.00048,3.42175 1.00414,1.43447 1.0031,1.67038 -0.009,2.05901 -0.62871,0.24141 -1.99927,0.0486 -3.04569,-0.42848 -1.04642,-0.47707 -2.05926,-0.71062 -2.25076,-0.51901 -0.79422,0.7947 0.56768,3.44942 2.11918,4.13086 1.20473,0.52915 1.73589,1.51995 1.90481,3.55318 0.20397,2.4549 0.57407,2.93166 2.8626,3.6874 3.04914,1.00691 3.38227,2.05869 0.85322,2.69383 -1.85428,0.46568 -9.80881,-2.59819 -10.76509,-4.14643 -0.28706,-0.46475 -1.18191,-1.19842 -1.98858,-1.6304 -1.26013,-0.67481 -1.62443,-0.40758 -2.58705,1.89767 -0.72968,1.74744 -2.06679,3.13467 -3.83434,3.97807 -2.31132,1.10286 -2.71396,1.67424 -2.71396,3.85142 0,4.28683 -1.82706,7.631 -4.48873,8.21595 -2.42129,0.53213 -5.72234,3.80872 -6.58863,6.53985 -0.29488,0.92962 -1.39908,1.74391 -2.72451,2.00916 -1.22578,0.2453 -2.22869,0.83593 -2.22869,1.31252 0,1.06386 -2.71155,2.84913 -3.35282,2.20747 -0.2552,-0.25534 -0.46399,-1.88941 -0.46399,-3.63126 0,-4.27711 -2.98144,-7.27191 -7.23949,-7.27191 -2.43679,0 -3.41415,0.49889 -5.5515,2.83374 -3.19671,3.49211 -4.00293,4.95607 -4.00293,7.26862 0,1.8835 -5.76157,8.22938 -7.47165,8.22938 -0.50892,0 -0.92531,0.89607 -0.92531,1.99128 0,1.50489 -0.29596,1.87764 -1.21168,1.52603 -0.79753,-0.30623 -2.81961,0.97002 -5.91604,3.73396 -2.5874,2.30956 -5.19705,4.20075 -5.79923,4.20265 -2.14633,0.007 -7.80444,3.27588 -8.43232,4.87204 -0.35133,0.89314 -1.30833,2.18018 -2.12666,2.86011 -1.0975,0.91187 -1.62853,2.6644 -2.02392,6.67933 -0.41714,4.23595 -0.97049,5.95974 -2.49507,7.77271 -1.07748,1.28128 -2.68854,3.75333 -3.58014,5.49344 -0.89161,1.74011 -2.13636,3.38997 -2.76614,3.66637 -0.62977,0.2764 -1.89344,0.88729 -2.80816,1.35753 -0.91472,0.47025 -1.80307,0.6096 -1.97412,0.30968 -0.17106,-0.29993 -0.19799,-0.0939 -0.0598,0.45785 0.42527,1.69856 -1.97856,5.48932 -3.48097,5.48932 -1.74411,0 -2.83915,1.25864 -3.54569,4.07543 -0.29762,1.18653 -1.32278,2.5137 -2.27814,2.94925 -1.29627,0.59098 -1.8712,1.68733 -2.26588,4.32082 -0.8166,5.44874 -2.08378,7.26414 -5.8432,8.37114 -1.8241,0.53712 -3.83182,1.13295 -4.46159,1.32406 -0.62977,0.19111 0.22901,-0.33121 1.9084,-1.16071 l 10e-6,0 z m 23.71433,-28.18807 c 1.50512,-0.91839 2.82793,-2.70568 3.70681,-5.0084 0.7516,-1.96924 1.55699,-3.38987 1.78976,-3.15697 0.94068,0.94125 2.49972,-2.78478 3.3819,-8.08255 0.7828,-4.70098 1.4262,-6.20663 3.9525,-9.24955 2.97622,-3.58482 6.42124,-5.90347 8.80106,-5.92347 1.44481,-0.0121 4.74564,-2.462 7.96205,-5.90938 1.27385,-1.36534 2.68553,-2.48243 3.13705,-2.48243 0.45153,0 1.25002,-0.68744 1.77442,-1.52764 0.5244,-0.84021 1.31711,-1.52765 1.76161,-1.52765 1.52794,0 6.23059,-5.73091 6.58114,-8.02014 0.6661,-4.3499 6.5706,-11.07543 9.72338,-11.07543 2.34073,0 6.53854,1.97413 6.53854,3.07491 0,0.40932 0.33273,0.74421 0.73941,0.74421 1.07213,0 -0.002,-2.45211 -1.75743,-4.01007 -2.05983,-1.82867 -7.21882,-1.72678 -9.66902,0.19095 -1.04962,0.82153 -2.49746,1.50132 -3.21742,1.51066 -0.71997,0.009 -1.65737,0.66828 -2.08313,1.4643 -0.42576,0.79601 -1.81642,1.81088 -3.09036,2.25524 -1.27394,0.44437 -2.52511,1.35253 -2.78038,2.01815 -0.8069,2.10403 -4.3005,3.41039 -7.30635,2.73205 -1.494,-0.33715 -3.10039,-0.85049 -3.56976,-1.14075 -0.46937,-0.29027 -0.84606,-0.24968 -0.8371,0.0902 0.009,0.33987 1.38301,1.58547 3.05344,2.76799 1.67043,1.18253 3.03714,2.41032 3.03714,2.72841 0,0.31809 -1.35705,1.71759 -3.01566,3.10997 -1.71023,1.43572 -3.22792,3.49861 -3.506,4.76545 -0.31318,1.42677 -1.63686,3.05112 -3.66374,4.49593 -5.96267,4.25036 -7.71406,5.66676 -11.25478,9.10208 -3.49397,3.38996 -3.54991,3.52208 -4.06984,9.61278 -0.48867,5.72459 -0.72562,6.38003 -3.24452,8.97492 -1.49453,1.53964 -2.94761,2.79933 -3.22905,2.79933 -0.65523,0 -3.13096,4.17001 -3.13096,5.27366 0,1.17978 0.79761,1.04321 3.48529,-0.59676 z m 62.92702,-52.03391 c 0,-1.13159 0.50891,-1.52765 1.96293,-1.52765 1.95994,0 4.14395,-1.53372 4.14395,-2.91009 0,-0.40027 1.09575,-1.7997 2.43499,-3.10985 2.45889,-2.40549 2.42653,-2.99531 -0.0904,-1.64748 -0.75451,0.40405 -1.79193,1.74945 -2.30538,2.98977 -0.52514,1.26856 -1.91984,2.66392 -3.18805,3.18954 -1.92921,0.7996 -2.39036,0.7485 -3.19614,-0.35414 -0.8036,-1.09965 -0.94164,-0.83511 -0.94164,1.8045 0,1.70118 0.26544,3.09304 0.58987,3.09304 0.32443,0 0.58987,-0.68744 0.58987,-1.52764 z m 183.42462,-81.58369 c -1.15029,-7.88206 -0.7938,-8.81349 3.13336,-8.18666 1.72533,0.27538 5.7133,0.65888 8.86216,0.85219 l 5.7252,0.3515 -2.14181,-1.92794 c -1.61161,-1.45069 -2.98162,-1.92794 -5.53435,-1.92794 -3.26165,0 -3.39256,-0.0886 -3.39256,-2.29465 0,-2.01817 -0.45417,-2.49309 -3.7694,-3.94154 -3.20754,-1.40141 -4.35001,-2.53885 -7.66467,-7.63099 -3.54998,-5.45363 -4.16198,-6.02678 -6.90383,-6.46549 -2.30067,-0.36811 -3.61249,-1.22272 -5.57544,-3.6322 -3.27791,-4.0236 -4.33098,-6.0404 -4.33098,-8.29462 0,-0.99386 -0.32781,-2.13501 -0.72846,-2.53591 -0.40065,-0.4009 -1.23849,-2.91655 -1.86187,-5.59033 -0.64226,-2.7548 -1.81725,-5.49891 -2.7115,-6.33253 -2.3521,-2.19265 -3.63133,-4.52034 -4.16585,-7.58023 -0.2633,-1.50725 -1.84766,-5.01156 -3.5208,-7.78735 -1.67314,-2.77579 -3.04208,-5.40943 -3.04208,-5.85255 0,-0.44311 -0.29975,-0.80566 -0.66612,-0.80566 -1.05867,0 -9.03393,-15.42623 -12.25199,-23.69853 -2.03746,-5.23751 -7.87978,-15.85665 -9.23406,-16.78407 -1.17401,-0.80397 -5.32878,-7.99856 -5.32878,-9.22756 0,-0.70965 -0.88349,-1.8695 -1.96332,-2.57746 -1.22132,-0.80072 -3.62468,-4.65882 -6.35925,-10.20849 -2.41777,-4.90672 -5.57055,-11.15549 -7.00617,-13.88615 -1.43562,-2.73067 -3.22625,-6.77151 -3.97917,-8.97965 -0.8592,-2.51983 -2.63576,-5.31904 -4.771,-7.51737 -3.56733,-3.67275 -4.17486,-5.82482 -2.24629,-7.95716 1.02633,-1.13478 1.02873,-1.58209 0.0214,-3.99445 -0.95645,-2.29049 -0.97083,-2.85238 -0.0917,-3.58241 0.8556,-0.71052 -0.0494,-3.01366 -5.04537,-12.83976 -3.34839,-6.58567 -7.09057,-13.1165 -8.31593,-14.51296 -1.22537,-1.39647 -2.22794,-2.90021 -2.22794,-3.34164 0,-1.28788 -4.81373,-10.60158 -5.47937,-10.60158 -0.33304,0 -1.64504,-2.06052 -2.91557,-4.57893 -1.86936,-3.70544 -2.14419,-4.84466 -1.44066,-5.97187 0.68707,-1.10083 0.52888,-2.16315 -0.75439,-5.06595 -0.89307,-2.02015 -1.62377,-3.80117 -1.62377,-3.95783 0,-0.74829 2.90112,-0.15348 4.41031,0.90423 2.12581,1.48988 2.11599,1.29966 -0.16788,-3.25018 -2.42848,-4.83791 -4.29788,-6.93066 -8.33966,-9.33604 -3.65584,-2.1757 -8.00959,-6.78391 -9.89348,-10.47174 -0.67191,-1.31529 -2.17865,-3.21082 -3.34831,-4.21227 -1.16966,-1.00147 -3.1235,-3.19066 -4.34186,-4.86488 -1.21836,-1.67422 -3.32797,-4.24706 -4.68803,-5.71742 -1.36005,-1.47036 -2.71674,-3.53268 -3.01486,-4.58294 -0.29811,-1.05025 -1.48129,-3.11257 -2.62928,-4.58293 -1.14798,-1.47036 -2.32747,-3.6404 -2.62106,-4.8223 -0.43719,-1.75995 -7.25912,-12.12772 -8.88914,-13.50945 -1.01046,-0.85654 -3.64103,-5.86515 -4.09524,-7.79733 -0.28711,-1.22134 0.0145,-3.32107 0.7364,-5.12633 1.12773,-2.82017 1.12227,-3.46041 -0.0703,-8.24294 -2.3068,-9.25103 -3.34375,-10.96302 -11.27675,-18.61776 -5.58835,-5.39234 -6.23997,-8.04573 -3.33915,-13.59683 1.08952,-2.08494 2.84991,-4.66027 3.91198,-5.72298 1.55865,-1.5596 1.93103,-2.67999 1.93103,-5.81001 0,-2.60194 0.34836,-4.01156 1.05879,-4.28435 1.17591,-0.45151 2.48054,-12.08683 1.64915,-14.70788 -0.2615,-0.8244 -1.90261,-2.07029 -3.64692,-2.76865 -4.53176,-1.81435 -6.86625,-3.68233 -8.53708,-6.83109 l -1.46077,-2.75291 1.71702,-1.82879 c 1.44497,-1.53903 1.57653,-2.09143 0.83036,-3.4865 -0.80585,-1.50667 -1.17768,-9.91459 -1.58821,-35.913727 -0.063,-3.990974 0.13333,-8.545267 0.43633,-10.120651 0.45254,-2.352864 0.33128,-2.864335 -0.67908,-2.864335 -0.87664,0 -1.23299,0.713151 -1.24041,2.482424 -0.0196,4.679139 -0.71401,5.918564 -3.32289,5.93132 -2.78209,0.0136 -3.83174,0.597317 -4.54451,2.527184 -0.6425,1.739636 -2.75141,1.396917 -3.87245,-0.629322 -0.46484,-0.840205 -1.05303,-1.699505 -1.30707,-1.909556 -0.25405,-0.210052 -0.88123,-1.669014 -1.39373,-3.242145 -0.82123,-2.52076 -1.11055,-2.764526 -2.43765,-2.05385 -1.23677,0.662302 -1.98136,0.38861 -4.16719,-1.531747 -2.35541,-2.069334 -3.94676,-2.729681 -5.85253,-2.428582 -1.11652,0.176397 -0.54838,-2.023466 1.18202,-4.576849 2.02521,-2.988395 3.00418,-5.262394 2.26548,-5.262394 -0.28172,0 -1.73086,1.11664 -3.22032,2.481415 -2.55692,2.342896 -2.54209,2.302758 0.26567,-0.718986 2.82813,-3.043666 2.92641,-3.31483 2.00663,-5.536706 -1.13343,-2.737984 -1.32602,-2.78971 -3.40448,-0.914464 -3.71735,3.353899 -11.44899,4.221449 -13.86041,1.55525 -2.53734,-2.805429 -7.64479,-4.880018 -17.48655,-7.102834 -2.51908,-0.56895 -5.22126,-1.300409 -6.00484,-1.625465 -1.26657,-0.525421 -1.32621,-0.406902 -0.53738,1.06794 0.48801,0.912423 1.54105,2.067473 2.34007,2.566769 1.95179,1.219634 0.57963,2.880322 -2.37985,2.880322 -1.394,0 -2.19661,0.398379 -2.19661,1.090296 0,3.242358 -7.23491,5.456665 -10.3503,3.167809 -1.79447,-1.667196 -0.55313,-4.31598 0.54549,-5.732627 0.93265,-0.869421 2.06034,-1.56841 2.50599,-1.553302 0.44564,0.01512 -0.16842,0.828534 -1.36458,1.80761 -1.33576,1.093343 -2.06801,2.335181 -1.89794,3.218779 0.23105,1.200485 0.97017,1.438637 4.46491,1.438637 4.05301,0 4.21123,-0.07883 4.90791,-2.445103 0.61098,-2.075184 1.13068,-2.484601 3.43512,-2.706117 2.6854,-0.258142 2.69427,-0.270615 0.80684,-1.134636 -1.04962,-0.480498 -1.59753,-0.895414 -1.21757,-0.922041 0.37995,-0.02666 0.0501,-0.756843 -0.73301,-1.622695 -1.97193,-2.180279 -0.15198,-3.345848 2.82173,-1.80715 1.15856,0.599477 2.87871,1.089958 3.82255,1.089958 3.81487,0 14.22433,3.860055 17.82212,6.608831 l 3.69038,2.819522 4.21138,-0.883888 c 2.31626,-0.486135 4.48713,-1.318557 4.82416,-1.849834 0.33704,-0.531277 0.61806,-0.670094 0.62449,-0.308477 0.006,0.361624 0.67643,-0.153956 1.48891,-1.145734 1.4679,-1.791844 1.48491,-1.793586 2.69785,-0.275572 3.17655,3.975514 3.39207,6.924725 0.78676,10.766188 -1.04962,1.547634 -1.88838,3.023714 -1.86392,3.280167 0.0245,0.256454 1.76201,1.570771 3.86121,2.920721 2.91978,1.877644 4.34445,2.348831 6.0624,2.005034 1.91342,-0.382919 2.24567,-0.21274 2.24567,1.150195 0,2.292698 3.01188,7.757223 4.27556,7.757223 0.58738,0 1.06796,-0.475495 1.06796,-1.05665 0,-1.094275 2.23158,-1.970082 5.06601,-1.988215 1.35206,-0.0086 1.72145,-0.614755 2.16064,-3.545283 0.62258,-4.154111 1.12134,-5.631015 1.90166,-5.631015 0.3124,0 2.362,1.694166 4.55467,3.764821 5.49401,5.188273 11.72381,9.353215 14.30799,9.565641 1.18897,0.09773 2.90102,0.416184 3.80456,0.707667 1.13868,0.367337 2.51834,-0.06454 4.49584,-1.407321 1.56918,-1.065509 3.92152,-1.938574 5.22743,-1.940147 2.51794,-0.0031 7.33624,-2.5021 7.33624,-3.805029 0.45682,-0.829045 1.41707,-0.784851 1.84513,-1.436422 0.22468,-0.363763 1.27549,-0.495553 2.33512,-0.292865 1.49165,0.285319 1.92663,0.832796 1.92663,2.424954 0,1.131038 0.46933,2.698677 1.04297,3.48365 0.97211,1.330251 1.21846,1.347116 3.62595,0.24822 1.42065,-0.648455 3.69941,-1.65263 5.06391,-2.231509 2.98225,-1.265195 3.05481,-1.641775 0.57252,-2.971064 -1.04962,-0.562081 -1.9084,-1.319694 -1.9084,-1.683587 0,-0.845895 2.50227,0.480628 3.75446,1.990339 1.36106,1.640966 0.44314,2.664099 -4.25563,4.743369 -6.39967,2.831957 -7.63809,2.500755 -8.62047,-2.305453 -0.62929,-3.078718 -2.89284,-3.540189 -4.96563,-1.012341 -1.94668,2.374053 -5.81425,4.378255 -8.44884,4.378255 -1.10067,0 -3.54506,0.90529 -5.43196,2.011764 -2.55709,1.49946 -3.65114,1.791225 -4.29624,1.145734 -0.47603,-0.476335 -1.7794,-0.866045 -2.89639,-0.866045 -2.33173,0 -6.09899,-2.367568 -12.33571,-7.75248 -4.30057,-3.713194 -4.37363,-3.742135 -4.83204,-1.914575 -0.73879,2.945362 0.19586,42.678152 1.05605,44.893552 0.42715,1.10011 1.62874,2.67087 2.67021,3.49059 1.04147,0.81971 2.32378,2.92717 2.8496,4.68324 0.52581,1.75607 1.39198,3.19286 1.92483,3.19286 0.53284,0 1.72203,0.94523 2.64264,2.10051 1.56347,1.96201 1.64384,2.64149 1.21872,10.30462 -0.43526,7.84593 -0.3726,8.3258 1.435,10.99107 1.20832,1.78164 1.89013,3.8565 1.89013,5.75203 0,2.42902 0.34832,3.12387 1.9267,3.84347 1.05968,0.48311 2.06229,1.59283 2.228,2.46604 1.6679,8.78876 2.71554,15.11993 2.71554,16.41081 0,0.8601 0.85878,2.12685 1.9084,2.81501 1.04962,0.68815 1.92279,1.81317 1.9404,2.50003 0.067,2.61599 6.2031,11.13032 11.30475,15.68632 0.98712,0.88154 2.36117,2.27571 3.05344,3.09816 0.69228,0.82246 2.42932,2.61516 3.86009,3.98378 2.50189,2.39322 2.60489,2.71586 2.69252,8.43433 0.0502,3.27025 0.48745,6.65235 0.97185,7.51577 0.49182,0.87663 0.6984,2.93019 0.46781,4.65041 -0.57138,4.26249 2.58053,10.47382 8.28324,16.32344 2.44687,2.50991 4.44885,4.86882 4.44885,5.24203 0,0.37321 2.20462,2.29811 4.89915,4.27756 3.09996,2.27728 5.22868,4.48412 5.79646,6.00916 0.49352,1.32558 1.12288,2.96197 1.39857,3.63642 0.57165,1.39848 9.6662,9.43659 16.05464,14.18969 2.36169,1.75714 5.26705,3.95508 6.45636,4.88431 2.71596,2.12203 8.95086,3.43179 9.73625,2.04529 1.28315,-2.26522 5.03354,-6.50172 7.94842,-8.97866 l 3.14604,-2.67338 -0.20567,-7.25632 c -0.11312,-3.99097 -0.42812,-9.52268 -0.7,-12.29269 -0.51817,-5.27931 0.37834,-8.28435 3.51072,-11.76772 0.75554,-0.84021 1.90251,-3.57098 2.54882,-6.06838 0.6463,-2.49741 1.96315,-5.59089 2.92631,-6.87441 1.48837,-1.98341 1.82066,-3.59472 2.21398,-10.73572 0.25452,-4.62112 1.04348,-10.12065 1.75323,-12.22116 2.11487,-6.25892 2.58465,-8.18578 3.10896,-12.75147 0.34483,-3.00286 1.13402,-5.17747 2.54909,-7.02405 1.1273,-1.47106 3.39786,-4.58369 5.0457,-6.91697 3.09164,-4.37763 4.20427,-4.99948 5.70592,-3.18899 1.19678,1.4429 -0.45436,15.19266 -2.26122,18.83028 -1.70563,3.43379 -3.00565,10.43934 -3.00565,16.19676 0,2.6469 -0.83416,7.27137 -2.03663,11.29078 -1.90106,6.35461 -1.97012,7.08505 -1.03756,10.97473 1.20286,5.01715 0.75992,7.79399 -2.20694,13.83535 -8.25164,16.80271 -8.63797,17.81834 -7.4327,19.54015 1.13578,1.62253 1.14416,1.61989 2.36626,-0.74483 1.35067,-2.61347 2.76671,-3.00451 4.27871,-1.18155 0.98643,1.18929 6.55002,1.16824 15.61085,-0.059 2.32839,-0.31538 3.7785,0.005 6.10688,1.35177 1.67939,0.97094 3.05344,2.26999 3.05344,2.88679 0,0.61678 0.55434,1.46515 1.23186,1.88525 2.10403,1.30462 7.54678,8.04768 7.54678,9.34977 0,0.68019 2.23283,3.38466 4.96184,6.00992 4.52088,4.34899 4.96184,5.05088 4.96184,7.89787 0,2.01712 0.67644,4.19688 1.9084,6.14961 1.04962,1.66371 1.9084,3.23336 1.9084,3.48811 0,0.25475 1.06253,1.94362 2.36117,3.75304 1.54966,2.15918 3.12381,3.44249 4.58016,3.73394 1.22045,0.24423 2.21899,0.80374 2.21899,1.24336 0,0.43961 0.8225,2.08087 1.82779,3.64725 1.00527,1.56638 2.04406,4.09789 2.30842,5.6256 0.27433,1.58546 1.70139,4.20816 3.32489,6.11058 1.56434,1.83311 4.03485,5.05154 5.49001,7.15205 1.45517,2.10052 6.12096,7.7719 10.36842,12.60308 10.57986,12.03381 13.65217,16.68917 16.84182,25.51988 0.59342,1.6429 2.50235,5.79447 4.24206,9.22571 l 3.16312,6.2386 c 2.81953,6.76197 4.93303,4.294 -0.89563,0.004 -1.42728,-1.72837 -6.05115,-11.12547 -8.05075,-16.36153 -1.11503,-2.91974 -2.9807,-6.81953 -4.14595,-8.66619 -1.16524,-1.84667 -2.32517,-3.87315 -2.5776,-4.5033 -0.25243,-0.63016 -4.52671,-5.79195 -9.49839,-11.47064 -4.97167,-5.6787 -10.06994,-11.86567 -11.32949,-13.74881 -1.25954,-1.88315 -2.55185,-3.53986 -2.8718,-3.68158 -1.53039,-0.6779 -5.14346,-7.13467 -5.14346,-9.1917 0,-1.26484 -0.34842,-2.51519 -0.77427,-2.77853 -0.42585,-0.26335 -1.46337,-1.83038 -2.30559,-3.48228 -1.0305,-2.02117 -2.04341,-3.00347 -3.09706,-3.00347 -1.63672,0 -3.08556,-1.11342 -3.97571,-3.05529 -0.28885,-0.63015 -1.90131,-3.32849 -3.58324,-5.99632 -1.68192,-2.66782 -3.05805,-5.79594 -3.05805,-6.95138 0,-3.68929 -1.50939,-6.45829 -5.01667,-9.20316 -1.87877,-1.47036 -4.10223,-4.0859 -4.94101,-5.81232 -1.67746,-3.45256 -7.0267,-9.46413 -8.42142,-9.46413 -0.48911,0 -0.71516,-0.64208 -0.50676,-1.43949 0.52634,-2.01392 -5.52534,-5.07038 -8.45557,-4.27056 -1.12636,0.30745 -4.9119,0.71292 -8.41232,0.90107 -5.1841,0.27863 -6.62322,0.10768 -7.7601,-0.92181 -1.31872,-1.19415 -1.46724,-1.11307 -2.69207,1.46964 -1.39788,2.9476 -2.96334,3.54131 -3.68296,1.39681 -0.24671,-0.73518 -0.84197,-1.8681 -1.32281,-2.5176 -0.69501,-0.93879 -0.37803,-1.98787 1.54593,-5.11661 1.33111,-2.16462 3.256,-6.06969 4.27753,-8.67792 1.02154,-2.60823 2.32856,-5.2897 2.90449,-5.95883 2.12987,-2.47452 2.81699,-7.81037 1.60421,-12.45747 -1.07732,-4.12797 -1.04378,-4.55876 0.79333,-10.19 1.2248,-3.75434 1.9182,-7.62124 1.9182,-10.69723 0,-5.48894 1.85459,-15.20452 3.34116,-17.50326 0.54944,-0.84961 1.26039,-3.4352 1.57988,-5.74577 1.62504,-11.7519 1.65372,-12.27949 0.70997,-13.06321 -0.68086,-0.5654 -1.17084,-0.36082 -1.75597,0.73317 -0.44638,0.83457 -1.25454,1.97386 -1.79592,2.53174 -0.54138,0.55789 -1.79918,2.21736 -2.79512,3.68772 -0.99595,1.47036 -2.27655,3.05773 -2.84578,3.52748 -0.56923,0.46975 -1.34064,3.21951 -1.71424,6.11058 -0.37359,2.89107 -1.05689,6.22409 -1.51842,7.40672 -0.46154,1.18263 -0.83915,2.84929 -0.83915,3.70368 0,0.85439 -0.49536,2.63655 -1.10078,3.96034 -0.65754,1.43773 -1.19545,5.50992 -1.33588,10.11311 -0.20942,6.86416 -0.45626,8.03261 -2.25904,10.69351 -1.11316,1.64303 -2.58662,4.97725 -3.27434,7.40938 -0.68772,2.43214 -1.86173,5.03375 -2.6089,5.78137 -3.09837,3.10025 -4.92861,11.31701 -3.22873,14.49518 0.38289,0.71588 0.79371,4.65506 0.91294,8.75374 0.16663,5.72835 -0.0385,7.69177 -0.88701,8.48812 -7.6733,7.20196 -11.70969,12.08103 -10.81406,13.07173 0.30248,0.33459 -0.13707,0.3401 -0.97676,0.0122 -0.8397,-0.32785 -3.14883,-0.76915 -5.13141,-0.98066 -2.5155,-0.26837 -3.73089,-0.78239 -4.02232,-1.70116 -0.22969,-0.72413 -1.33371,-1.73424 -2.45338,-2.24471 -5.63185,-2.56759 -20.77717,-16.6489 -22.08498,-20.53343 -0.52416,-1.55688 -2.07506,-3.69 -3.44645,-4.74025 -4.18211,-3.20281 -14.73591,-14.22223 -17.43991,-18.20934 -2.4223,-3.57175 -3.69727,-8.34939 -3.02456,-11.33387 0.39607,-1.75721 0.24925,-2.75176 -0.49782,-3.37215 -0.74336,-0.61728 -1.05957,-2.71582 -1.05957,-7.03197 0,-6.00796 -0.0628,-6.21605 -2.68136,-8.88139 -7.14594,-7.27365 -14.59296,-15.33479 -14.18574,-15.35558 0.25018,-0.0128 -0.1069,-0.35152 -0.79349,-0.75277 -0.6866,-0.40125 -1.71714,-2.32325 -2.29008,-4.27109 -0.57295,-1.94786 -1.87792,-4.20037 -2.89995,-5.00559 -1.91337,-1.50749 -2.54787,-3.92212 -3.73355,-14.20829 -0.44012,-3.81817 -0.97136,-5.17315 -2.63249,-6.71436 -1.54453,-1.43305 -2.08133,-2.6614 -2.08202,-4.7643 -6.2e-4,-1.87695 -0.6104,-3.54249 -1.80638,-4.93393 -2.70527,-3.1474 -3.63911,-2.702 -3.44105,1.64126 0.14157,3.10462 -0.18417,4.16367 -1.91295,6.21946 -1.14597,1.36274 -2.88055,4.06137 -3.85463,5.99697 -2.36252,4.69462 -1.88246,7.88145 1.60071,10.6261 1.43719,1.13247 4.50461,4.40584 6.81648,7.27415 3.47328,4.30925 4.45254,6.2127 5.63774,10.95833 0.78888,3.15877 1.60274,5.91173 1.80857,6.11769 0.20583,0.20596 -0.14222,2.11464 -0.77345,4.24153 -1.46889,4.94926 -0.88467,7.92457 2.46357,12.54644 7.92836,10.94427 9.49288,13.32924 9.49288,14.47109 0,1.37116 4.76326,9.08547 8.16153,13.21793 1.1791,1.43385 2.69005,3.49617 3.35767,4.58294 0.66762,1.08675 3.15808,4.02971 5.53436,6.53989 2.37628,2.51019 4.32051,4.85046 4.32051,5.20059 0,1.30899 4.98677,6.78231 7.59718,8.33843 4.37583,2.60851 7.68746,6.07788 9.65079,10.11044 1.00982,2.07412 1.83603,4.22237 1.83603,4.7739 0,1.22405 -1.6733,1.3144 -2.83397,0.15303 -1.87588,-1.87701 -2.34145,-0.16953 -0.84222,3.0888 1.42575,3.09862 1.45252,3.46153 0.31665,4.2926 -1.11706,0.81731 -0.99241,1.32708 1.25023,5.11305 1.37004,2.31288 3.37953,5.53701 4.46553,7.16474 1.08599,1.62773 2.61809,4.67811 3.40467,6.77862 0.78657,2.10051 2.31091,4.71315 3.38742,5.80587 1.82976,1.85732 13.75249,24.85803 13.75249,26.53059 0,0.41939 -0.41249,0.9001 -0.91665,1.06826 -0.66558,0.22199 -0.53435,1.11186 0.47911,3.24886 1.28337,2.70615 1.29571,3.01632 0.15329,3.85219 -1.65678,1.2122 -1.57412,3.7987 0.17527,5.48479 3.04894,2.93861 6.20172,8.1907 7.79794,12.99026 0.91924,2.76396 2.49316,6.23716 3.49762,7.7182 1.00445,1.48105 3.55501,6.30552 5.66789,10.72105 2.25373,4.70988 4.9283,9.05375 6.47069,10.50929 1.44599,1.36457 2.63036,3.10563 2.63193,3.86903 0.003,1.5811 2.40047,5.82009 4.8885,8.64429 3.11785,3.53912 7.09702,11.02126 10.76477,20.2413 2.00541,5.04123 4.05356,9.68146 4.55143,10.31161 1.16815,1.47851 10.54308,17.24601 12.03494,20.2413 0.62772,1.26031 1.36024,3.49449 1.62783,4.96485 0.2676,1.47036 1.46419,3.71657 2.65909,4.99158 2.87352,3.06617 3.92766,5.14376 3.93336,7.75223 0.002,1.18291 0.51786,3.13525 1.14504,4.33855 0.62719,1.20331 1.14034,2.84967 1.14034,3.65859 0,4.16465 6.02458,11.3396 9.52149,11.3396 1.9497,0 4.84569,2.93766 8.33234,8.4522 1.53685,2.43071 3.44443,4.13642 6.29758,5.63114 3.59949,1.88572 4.52512,3.03702 4.18331,5.20318 -0.0497,0.31508 0.77941,0.57287 1.84252,0.57287 3.89117,0 10.74875,4.36935 9.23492,5.88409 -0.7617,0.76217 -10.64094,0.97666 -11.54831,0.25073 -0.42052,-0.33641 -1.79511,-0.83091 -3.05465,-1.09888 -1.8053,-0.38409 -2.49577,-0.1565 -3.26173,1.07511 -0.6364,1.02331 -0.73158,2.01749 -0.27587,2.88146 0.38267,0.7255 0.71225,2.76178 0.7324,4.52506 0.0202,1.76328 0.41841,3.91975 0.88502,4.79216 8.79468,9.32303 4.11263,-0.87831 -2.06015,-5.94311 z M 451.99401,124.50807 c -0.51759,-0.62403 -1.58233,-1.33826 -2.36607,-1.58716 -0.88241,-0.28024 -1.80083,-1.78304 -2.41199,-3.94674 -0.54446,-1.92754 -1.7325,-3.98938 -2.64977,-4.59865 -1.52924,-1.01576 -1.7663,-0.94637 -2.95168,0.86385 -1.24625,1.90317 -1.21922,2.05974 0.81681,4.73074 1.22646,1.60894 3.73397,3.48658 6.00513,4.49669 4.16204,1.85108 5.06738,1.86158 3.55757,0.0412 l 0,2e-5 z m 6.07095,289.67213 c -0.009,-1.18229 4.02098,-8.00213 5.8691,-9.9329 1.82275,-1.90427 1.97335,-2.5813 1.95395,-8.78396 -0.0363,-11.58728 -2.71149,-14.87308 -9.61983,-11.81533 -1.90039,0.84114 -5.36005,1.92502 -7.68812,2.40862 -2.32808,0.4836 -4.43089,1.19987 -4.67291,1.59171 -0.6262,1.01383 -5.77932,0.83238 -7.65159,-0.26942 -0.86703,-0.51024 -3.05389,-2.13073 -4.85965,-3.60109 -1.80578,-1.47035 -3.75325,-2.5736 -4.32774,-2.45166 -0.57449,0.12194 -2.09767,-1.49091 -3.38485,-3.5841 -1.28717,-2.0932 -4.02493,-5.01683 -6.08391,-6.49695 -4.34284,-3.12191 -5.73944,-5.08176 -6.42969,-9.02279 -0.27376,-1.56302 -1.34285,-3.84682 -2.37576,-5.07511 -1.03292,-1.2283 -1.87803,-2.59454 -1.87803,-3.0361 0,-0.44156 -0.917,-1.25124 -2.03777,-1.79929 -1.41012,-0.68954 -2.68008,-2.51695 -4.12313,-5.93296 -1.31393,-3.11035 -3.26731,-6.03968 -5.28043,-7.91864 -1.75729,-1.64017 -4.72279,-5.21494 -6.58999,-7.94393 -4.12117,-6.02323 -8.40929,-10.32097 -14.17312,-14.20492 -6.09693,-4.10841 -10.8484,-9.46801 -13.64578,-15.39227 l -2.39726,-5.07689 1.30742,-5.55514 c 1.1618,-4.93639 1.1829,-5.80308 0.18939,-7.78118 -1.96514,-3.91267 -2.93991,-9.19294 -2.10345,-11.39432 1.49276,-3.92864 0.95436,-7.0662 -1.52763,-8.90233 -1.95536,-1.44654 -2.29281,-2.20345 -2.30875,-5.17867 -0.0102,-1.91648 -0.36514,-4.98828 -0.78864,-6.82622 -0.64195,-2.78606 -0.54677,-3.6751 0.57238,-5.34676 2.87408,-4.29295 3.83725,-6.74627 4.24609,-10.81543 0.23361,-2.32509 1.35486,-8.1197 2.49166,-12.87691 1.84986,-7.74112 2.36736,-8.94158 4.9277,-11.43092 3.47972,-3.38325 7.78622,-9.90568 11.35562,-17.19871 2.02141,-4.13018 2.7778,-6.82317 3.13759,-11.17081 0.2659,-3.21318 1.08383,-6.87317 1.86271,-8.3351 1.17849,-2.21203 1.25602,-3.04933 0.51229,-5.53319 -0.65236,-2.17867 -0.65609,-3.33852 -0.0147,-4.53783 1.69721,-3.17319 -0.21976,-22.38822 -2.62155,-26.2775 -0.51887,-0.84021 -1.55599,-3.16897 -2.30472,-5.17502 -1.04629,-2.80329 -1.94176,-3.89003 -3.86944,-4.69595 -1.37945,-0.57673 -2.77877,-1.4868 -3.10957,-2.02239 -0.33794,-0.54711 0.19738,-0.41392 1.22169,0.30397 1.00276,0.70278 2.00439,1.27841 2.22586,1.27917 0.22147,7.7e-4 0.29078,-1.97563 0.15404,-4.39198 -0.21301,-3.76387 0.0499,-4.83114 1.835,-7.44866 4.81948,-7.06688 5.66557,-10.25036 5.66557,-21.316801 l 0,-10.197819 3.48212,-2.855063 c 1.91517,-1.570282 4.31487,-4.175024 5.33268,-5.788317 1.36755,-2.167652 2.64436,-3.147132 4.89182,-3.752683 3.00855,-0.810607 4.73513,-2.575817 11.6751,-11.936334 1.15458,-1.557274 2.09924,-2.452627 2.09924,-1.989674 0,0.462961 -0.33519,1.049034 -0.74488,1.302379 -0.40968,0.253352 -1.94309,2.250031 -3.40759,4.437061 -4.22322,6.306808 -5.98434,7.970314 -9.41728,8.895273 -2.27313,0.612464 -3.54137,1.499453 -4.33237,3.030023 -0.61513,1.190242 -2.85025,3.722093 -4.96694,5.626333 l -3.84854,3.462256 0,9.982192 c 0,10.799004 -0.87404,14.074784 -5.60775,21.016814 -2.47613,3.63126 -2.80815,9.71051 -0.69408,12.70843 1.53142,2.17169 4.6037,9.21445 5.48873,12.58208 2.10253,8.00047 2.59321,11.32381 2.41976,16.38905 -0.10728,3.13255 -0.52584,6.314 -0.93013,7.0699 -0.48592,0.9085 -0.43372,2.38088 0.15402,4.34376 0.75608,2.5251 0.68491,3.353 -0.47563,5.53318 -0.75061,1.41007 -1.59457,5.14168 -1.87548,8.29244 -0.38215,4.28646 -1.18128,7.09875 -3.17425,11.17081 -3.4439,7.0366 -7.75311,13.63428 -11.41203,17.47254 -2.52365,2.64734 -3.1737,4.12618 -4.86845,11.07543 -1.07574,4.41108 -2.17534,10.08246 -2.44356,12.60308 -0.26821,2.52061 -1.20603,5.89113 -2.08404,7.49004 -0.87801,1.59891 -1.98398,3.6002 -2.45771,4.44733 -0.56491,1.01016 -0.63686,2.50695 -0.20906,4.34921 0.35876,1.54494 0.66048,4.46384 0.67049,6.48646 0.0156,3.13697 0.35481,3.96086 2.3083,5.60561 2.4761,2.08477 2.99482,5.18492 1.51791,9.07185 -0.81955,2.15686 -0.0795,6.00274 2.11824,11.00746 1.04288,2.3749 1.02653,3.17078 -0.16935,8.24653 l -1.32363,5.61794 2.80252,5.6753 c 2.85252,5.77655 8.32875,11.5211 14.65663,15.37478 3.96499,2.41467 8.42459,6.95796 11.48538,11.7009 1.4831,2.29818 4.6603,6.25097 7.06044,8.78396 2.77816,2.93195 5.02553,6.23259 6.18471,9.08331 1.20641,2.96687 2.41,4.702 3.56688,5.1421 0.96032,0.36534 2.09216,1.44378 2.5152,2.39655 0.42304,0.95276 1.61917,2.90022 2.65807,4.32768 1.0389,1.42746 1.88891,3.42644 1.88891,4.44219 0,2.85118 1.22022,4.52692 5.71645,7.8505 2.27893,1.68456 5.05559,4.62013 6.17035,6.52348 1.45943,2.49183 2.38727,3.34617 3.31433,3.05175 0.82682,-0.26257 2.22981,0.57207 3.92106,2.33267 1.44846,1.50784 3.56117,3.22779 4.6949,3.8221 2.33931,1.22628 6.81401,1.43518 7.90052,0.36882 0.39885,-0.39145 2.78626,-1.22232 5.30535,-1.84636 2.51909,-0.62405 6.2128,-1.76221 8.20825,-2.52926 4.34312,-1.66947 5.62332,-1.13224 7.73706,3.24679 1.02759,2.12886 1.4801,4.90173 1.57598,9.65723 0.13351,6.62157 0.11577,6.68909 -2.39568,9.12476 -1.39159,1.3496 -2.54089,2.81605 -2.554,3.25877 -0.0266,0.89711 -3.78288,7.22504 -3.78906,6.38307 z M 367.43835,121.78791 c -0.9302,-1.14889 -2.17843,-4.28301 -2.77384,-6.9647 -0.59541,-2.68169 -1.64622,-6.76627 -2.33512,-9.07683 -2.10292,-7.053169 -3.3237,-12.336416 -4.23585,-18.331744 -0.47938,-3.150769 -1.2241,-6.759831 -1.65494,-8.020139 -0.43084,-1.260307 -1.18673,-3.834206 -1.67976,-5.719779 -0.63402,-2.424763 -1.34333,-3.509895 -2.42314,-3.707015 -2.31685,-0.422936 -3.88398,-2.135655 -6.09888,-6.665506 -1.1078,-2.26562 -2.37073,-4.339803 -2.80653,-4.609311 -0.43581,-0.269499 -1.26523,-1.62242 -1.84319,-3.00649 -1.20866,-2.894483 -5.66364,-6.563123 -5.66364,-4.663955 0,1.566425 -3.56263,5.668543 -6.03335,6.946975 -3.63585,1.881311 -7.40839,2.208617 -10.08085,0.874608 -2.28493,-1.140563 -2.57061,-1.132535 -4.04995,0.113886 -0.87539,0.737562 -1.86546,1.769135 -2.20015,2.292392 -0.3347,0.523249 -3.0828,2.834989 -6.10688,5.137189 -3.02409,2.3022 -6.95414,5.311287 -8.73345,6.686855 -1.77931,1.375576 -5.18104,3.704059 -7.55938,5.174417 -2.37834,1.470359 -5.55994,3.499378 -7.07024,4.508922 -4.36546,2.918085 -10.23736,4.656951 -15.7258,4.656951 -5.95603,0 -11.56721,-2.480286 -17.58503,-7.773042 -4.36825,-3.841936 -5.90267,-4.646288 -12.18331,-6.386596 -2.51909,-0.698012 -5.26718,-1.637651 -6.10688,-2.088078 -0.8397,-0.450426 -5.1336,-0.856474 -9.542,-0.902319 -8.36883,-0.08704 -17.15782,-1.426752 -18.91097,-2.882628 -0.56341,-0.467872 -1.88142,-2.313993 -2.92892,-4.102492 l -1.90453,-3.251814 -3.20415,1.455548 c -3.87673,1.761077 -6.01928,1.849123 -8.88712,0.365206 -1.19462,-0.618131 -3.66803,-1.352699 -5.49646,-1.632365 -4.8395,-0.740221 -5.58614,-1.322177 -7.60575,-5.928227 l -1.82553,-4.163452 -5.54029,-0.828587 c -3.04716,-0.455727 -7.65791,-1.689584 -10.24613,-2.74191 -2.58821,-1.052326 -5.86597,-1.913314 -7.2839,-1.913314 -1.41794,0 -3.61747,-0.537823 -4.88785,-1.195161 -1.27037,-0.657339 -4.25905,-1.548449 -6.64149,-1.980245 -2.38243,-0.431796 -5.8775,-1.095455 -7.76682,-1.474797 -1.88932,-0.379342 -5.37704,-1.004161 -7.75049,-1.388484 -2.37346,-0.384324 -5.85863,-1.381842 -7.74484,-2.216705 -1.8862,-0.834864 -4.53164,-1.76016 -5.87875,-2.056215 -1.34711,-0.296054 -4.00285,-1.22591 -5.90164,-2.066347 -2.861753,-1.266653 -4.317282,-1.435831 -8.508196,-0.988911 -2.780714,0.296536 -5.654963,0.8585 -6.387231,1.24881 -1.742247,0.928648 -14.154367,3.448524 -20.26408,4.11396 L 62.5795,37.15943 58.793254,33.370888 c -3.099231,-3.101109 -3.786247,-4.274364 -3.786247,-6.465983 0,-1.472594 -1.074221,-5.216689 -2.387159,-8.320212 C 51.30691,15.48117 50.013967,11.738904 49.746642,10.268545 49.317036,7.9056069 48.862929,7.4733581 45.836082,6.5462149 43.9526,5.969292 40.865765,4.7967585 38.976449,3.940585 34.200705,1.7763813 16.47715,0.30407568 4.3796514,1.066609 2.355255,1.1942117 0.3967019,0.99620138 0.02731115,0.62658682 -0.82786493,-0.22910769 18.61407,-0.20138092 28.28941,0.66689222 32.292077,1.0260951 36.738422,1.903473 38.213089,2.6250884 c 1.469468,0.7190718 4.384752,1.7272895 6.478408,2.2404844 4.388354,1.0756693 5.735351,1.9887361 5.735351,3.8877268 0,0.7441458 1.374048,4.8214554 3.05344,9.0606874 1.679391,4.239233 3.053439,8.603958 3.053439,9.699389 0,1.763876 3.027923,6.891905 3.070414,5.199991 0.0093,-0.371732 0.636561,0.130131 1.393835,1.11525 0.763951,0.993806 2.200587,1.798244 3.227306,1.807117 4.879006,0.04216 21.378787,-2.984613 23.533416,-4.317053 0.447726,-0.276877 2.785409,-0.824455 5.194855,-1.21684 4.012533,-0.653452 5.048672,-0.487443 12.325297,1.974741 4.36947,1.478491 8.67217,3.08631 9.56156,3.57293 0.88939,0.48662 3.50639,1.145847 5.81555,1.46495 7.54539,1.042696 21.72083,4.193427 23.66816,5.260651 1.04742,0.574028 3.62196,1.275951 5.7212,1.559818 2.09924,0.283875 5.87709,1.279158 8.39522,2.21174 2.51814,0.932589 7.06967,1.884137 10.11452,2.114559 5.4993,0.416161 5.5361,0.433622 5.5361,2.627038 0,2.285977 1.71004,5.647759 3.71844,7.31015 0.63443,0.525128 2.38112,0.954778 3.88152,0.954778 1.5004,0 4.06146,0.715122 5.69122,1.589157 l 2.96323,1.589155 4.63259,-1.690148 c 4.35871,-1.590233 4.67928,-1.61146 5.42243,-0.359066 2.81798,4.748999 5.14664,7.273005 6.71067,7.273578 0.94202,3.44e-4 4.28911,0.547134 7.43797,1.215089 3.94147,0.836088 7.44352,1.064487 11.24048,0.733079 4.20967,-0.367437 5.92637,-0.214474 7.25192,0.646164 0.95515,0.620155 4.08528,1.714186 6.95585,2.431171 4.15604,1.038065 6.09979,2.062734 9.542,5.030146 5.7428,4.950679 13.88695,9.039292 18.00545,9.039292 4.88324,0 11.80547,-2.092767 16.05753,-4.854613 2.11621,-1.374537 5.5652,-3.570053 7.66444,-4.878925 6.94304,-4.328957 20.73981,-15.035299 22.59898,-17.536872 2.2981,-3.09216 3.61214,-3.632275 5.24332,-2.155179 2.65315,2.402513 10.19945,0.908567 13.84712,-2.741321 1.30705,-1.307841 1.82731,-2.860898 2.06642,-6.168716 l 0.31958,-4.420815 2.25754,1.900742 c 2.72507,2.294386 7.80709,2.5694 11.52947,0.623913 3.33599,-1.743539 15.25771,-5.552141 15.9804,-5.105221 1.04897,0.648693 0.61442,1.973938 -0.50617,1.543669 -1.2782,-0.490787 -14.33045,3.639959 -16.97036,5.370735 -2.09057,1.370634 -7.17057,0.877243 -9.99218,-0.970475 -1.56796,-1.026768 -1.71756,-1.00128 -1.71756,0.292674 0,0.779581 1.37405,2.522303 3.05344,3.872719 1.67939,1.350415 3.05344,2.925479 3.05344,3.500148 0,0.57467 0.69631,1.847428 1.54736,2.828344 0.85105,0.980916 2.49571,3.644679 3.65481,5.919473 1.15909,2.274794 2.69561,4.423045 3.41447,4.773892 0.71888,0.350846 1.90818,0.929809 2.64292,1.286575 0.73473,0.356774 1.72627,2.196922 2.20341,4.089216 0.47715,1.892295 1.19678,4.092364 1.59919,4.889038 0.4024,0.796683 1.17658,4.541988 1.72041,8.32291 0.54381,3.780923 1.49395,8.764865 2.11142,11.075429 2.17256,8.129727 3.16443,11.475297 3.62157,12.215407 0.25392,0.4111 0.77876,2.69684 1.1663,5.07941 0.43202,2.65609 1.35357,5.02315 2.38209,6.11863 0.92262,0.98268 1.533,1.9146 1.3564,2.07094 -0.17659,0.15635 -1.08214,-0.65573 -2.01234,-1.80463 z M 502.7176,69.094769 c -1.67939,-0.852571 -4.21204,-2.401245 -5.62811,-3.441487 -1.41607,-1.040243 -2.85227,-1.719686 -3.19153,-1.509879 -0.33928,0.209807 -0.83263,0.03216 -1.09634,-0.394813 -0.98558,-1.595663 2.63505,-0.702082 4.90745,1.211179 1.29829,1.093099 4.07305,2.638557 6.16613,3.434345 3.27061,1.243488 4.55056,1.341173 9.10475,0.69488 6.26807,-0.88951 23.78138,-7.674844 26.44905,-10.247391 0.47575,-0.458775 2.9242,-2.62629 5.44101,-4.816697 2.51681,-2.190406 6.4854,-6.317799 8.81908,-9.171982 1.50179,-1.316831 1.52997,0.831497 -6.47055,8.18174 -4.46927,4.503972 -12.89094,10.701468 -14.54204,10.701468 -0.39627,0 -1.80294,0.494125 -3.12593,1.098049 -8.03933,3.669824 -12.06365,4.882882 -17.67265,5.327083 -5.23655,0.41471 -6.54204,0.262717 -9.16032,-1.066495 z"
       sodipodi:nodetypes="ccssssssssssscsssssssssssscssssssccssssssscssssssssssssssssssscsscssscsssssssscsssssssssssscssssssssscscssssssssssssscsssscsscsssssssssscssssccssssssssscsscsssssssscsssssssscsssssscccsscsscsssssssscscssssccsssssssssssssssssssssscsscssssssssssssssssssssssssscsssssssssssssssssssssssssssssscssssssssccssssssssssssssssscccsssssscsssscsccssscssssscsssssscccssssssssssssscssssssssssssssscssscssssssssssscsssssssssssssssssssscssssssssssscsssssccssssscscsscsssssssssscsssssssssssssssssssssssscscssssssscsscsssssssssssssssssssssssssssssssscssssssscsssssscssssscsscsssccccssssssccccssssssssssssssssssscsssscssssssssscssscscssscssssscsssscsssssssssssssssscsssscssssscssssscsssssssscccsssssssscssssscssssssssssscsssscssssssssssssscsssssssssssssscssssssssssssssscssssssssssssssscsssssssssssccscssssscsssccsssssccssss" />
    <g
       id="Oval">
      <use
         height="100%"
         width="100%"
         y="0"
         x="0"
         style="fill:#1490b3;fill-rule:evenodd"
         id="use101"
         xlink:href="#path-5" />
      <circle
         style="stroke:#095654;stroke-width:4"
         id="circle103"
         r="16.5"
         cy="134.5"
         cx="399.5" />
      <circle
         style="stroke:#ffffff;stroke-width:2"
         id="circle105"
         r="15.5"
         cy="134.5"
         cx="399.5" />
    </g>
    <g
       id="Oval-Copy">
      <use
         height="100%"
         width="100%"
         y="0"
         x="0"
         style="fill:#1490b3;fill-rule:evenodd"
         id="use108"
         xlink:href="#path-6" />
      <circle
         style="stroke:#095654;stroke-width:4"
         id="circle110"
         r="12.5"
         cy="144.5"
         cx="362.5" />
      <circle
         style="stroke:#ffffff;stroke-width:2"
         id="circle112"
         r="11.5"
         cy="144.5"
         cx="362.5" />
    </g>
    <g
       id="Oval-Copy-2">
      <use
         height="100%"
         width="100%"
         y="0"
         x="0"
         style="fill:#1490b3;fill-rule:evenodd"
         id="use115"
         xlink:href="#path-7" />
      <circle
         style="stroke:#095654;stroke-width:4"
         id="circle117"
         r="7.5"
         cy="77.5"
         cx="416.5" />
      <circle
         style="stroke:#ffffff;stroke-width:2"
         id="circle119"
         r="6.5"
         cy="77.5"
         cx="416.5" />
    </g>
    <g
       id="Oval-Copy-13">
      <use
         height="100%"
         width="100%"
         y="0"
         x="0"
         style="fill:#1490b3;fill-rule:evenodd"
         id="use122"
         xlink:href="#path-8" />
      <circle
         style="stroke:#095654;stroke-width:4"
         id="circle124"
         r="7.5"
         cy="519.5"
         cx="491.5" />
      <circle
         style="stroke:#ffffff;stroke-width:2"
         id="circle126"
         r="6.5"
         cy="519.5"
         cx="491.5" />
    </g>
    <g
       id="Oval-Copy-6">
      <use
         height="100%"
         width="100%"
         y="0"
         x="0"
         style="fill:#1490b3;fill-rule:evenodd"
         id="use129"
         xlink:href="#path-9" />
      <circle
         style="stroke:#095654;stroke-width:4"
         id="circle131"
         r="7.5"
         cy="58.5"
         cx="395.5" />
      <circle
         style="stroke:#ffffff;stroke-width:2"
         id="circle133"
         r="6.5"
         cy="58.5"
         cx="395.5" />
    </g>
    <g
       id="Oval-Copy-7">
      <use
         height="100%"
         width="100%"
         y="0"
         x="0"
         style="fill:#1490b3;fill-rule:evenodd"
         id="use136"
         xlink:href="#path-10" />
      <ellipse
         style="stroke:#095654;stroke-width:4"
         id="ellipse138"
         ry="9"
         rx="9.5"
         cy="187"
         cx="392.5" />
      <ellipse
         style="stroke:#ffffff;stroke-width:2"
         id="ellipse140"
         ry="8"
         rx="8.5"
         cy="187"
         cx="392.5" />
    </g>
    <g
       id="Oval-Copy-8">
      <use
         height="100%"
         width="100%"
         y="0"
         x="0"
         style="fill:#1490b3;fill-rule:evenodd"
         id="use143"
         xlink:href="#path-11" />
      <circle
         style="stroke:#095654;stroke-width:4"
         id="circle145"
         r="7.5"
         cy="278.5"
         cx="370.5" />
      <circle
         style="stroke:#ffffff;stroke-width:2"
         id="circle147"
         r="6.5"
         cy="278.5"
         cx="370.5" />
    </g>
    <g
       id="Oval-Copy-11">
      <use
         height="100%"
         width="100%"
         y="0"
         x="0"
         style="fill:#1490b3;fill-rule:evenodd"
         id="use150"
         xlink:href="#path-12" />
      <circle
         style="stroke:#095654;stroke-width:4"
         id="circle152"
         r="7.5"
         cy="83.5"
         cx="452.5" />
      <circle
         style="stroke:#ffffff;stroke-width:2"
         id="circle154"
         r="6.5"
         cy="83.5"
         cx="452.5" />
    </g>
    <g
       id="Oval-Copy-12">
      <use
         height="100%"
         width="100%"
         y="0"
         x="0"
         style="fill:#1490b3;fill-rule:evenodd"
         id="use157"
         xlink:href="#path-13" />
      <circle
         style="stroke:#095654;stroke-width:4"
         id="circle159"
         r="7.5"
         cy="134.5"
         cx="462.5" />
      <circle
         style="stroke:#ffffff;stroke-width:2"
         id="circle161"
         r="6.5"
         cy="134.5"
         cx="462.5" />
    </g>
    <g
       id="Oval-Copy-10">
      <use
         height="100%"
         width="100%"
         y="0"
         x="0"
         style="fill:#1490b3;fill-rule:evenodd"
         id="use164"
         xlink:href="#path-14" />
      <circle
         style="stroke:#095654;stroke-width:4"
         id="circle166"
         r="7.5"
         cy="72.5"
         cx="178.5" />
      <circle
         style="stroke:#ffffff;stroke-width:2"
         id="circle168"
         r="6.5"
         cy="72.5"
         cx="178.5" />
    </g>
    <g
       id="Oval-Copy-9">
      <use
         height="100%"
         width="100%"
         y="0"
         x="0"
         style="fill:#1490b3;fill-rule:evenodd"
         id="use171"
         xlink:href="#path-15" />
      <circle
         style="stroke:#095654;stroke-width:4"
         id="circle173"
         r="7.5"
         cy="374.5"
         cx="473.5" />
      <circle
         style="stroke:#ffffff;stroke-width:2"
         id="circle175"
         r="6.5"
         cy="374.5"
         cx="473.5" />
    </g>
    <g
       id="Oval-Copy-3">
      <use
         height="100%"
         width="100%"
         y="0"
         x="0"
         style="fill:#1490b3;fill-rule:evenodd"
         id="use178"
         xlink:href="#path-16" />
      <circle
         style="stroke:#095654;stroke-width:4"
         id="circle180"
         r="9"
         cy="90"
         cx="396" />
      <circle
         style="stroke:#ffffff;stroke-width:2"
         id="circle182"
         r="8"
         cy="90"
         cx="396" />
    </g>
    <g
       id="Oval-Copy-4">
      <use
         height="100%"
         width="100%"
         y="0"
         x="0"
         style="fill:#1490b3;fill-rule:evenodd"
         id="use185"
         xlink:href="#path-17" />
      <circle
         style="stroke:#095654;stroke-width:4"
         id="circle187"
         r="8"
         cy="95"
         cx="370" />
      <circle
         style="stroke:#ffffff;stroke-width:2"
         id="circle189"
         r="7"
         cy="95"
         cx="370" />
    </g>
    <g
       id="Oval-Copy-5">
      <use
         height="100%"
         width="100%"
         y="0"
         x="0"
         style="fill:#1490b3;fill-rule:evenodd"
         id="use192"
         xlink:href="#path-18" />
      <circle
         style="stroke:#095654;stroke-width:4"
         id="circle194"
         r="11.5"
         cy="76.5"
         cx="321.5" />
      <circle
         style="stroke:#ffffff;stroke-width:2"
         id="circle196"
         r="10.5"
         cy="76.5"
         cx="321.5" />
    </g>
  </g>
  <flowRoot
     xml:space="preserve"
     id="flowRoot4457"
     style="font-style:normal;font-weight:normal;font-size:40px;line-height:125%;font-family:sans-serif;letter-spacing:0px;word-spacing:0px;fill:#000000;fill-opacity:1;stroke:none;stroke-width:1px;stroke-linecap:butt;stroke-linejoin:miter;stroke-opacity:1"
     transform="translate(-57.389314)"><flowRegion
       id="flowRegion4459"><rect
         id="rect4461"
         width="162.85329"
         height="234.91226"
         x="466.94214"
         y="361.85226" /></flowRegion><flowPara
       id="flowPara4463" /></flowRoot>  <flowRoot
     xml:space="preserve"
     id="flowRoot4465"
     style="font-style:normal;font-weight:normal;font-size:40px;line-height:125%;font-family:sans-serif;letter-spacing:0px;word-spacing:0px;fill:#000000;fill-opacity:1;stroke:none;stroke-width:1px;stroke-linecap:butt;stroke-linejoin:miter;stroke-opacity:1"
     transform="translate(-57.389314)"><flowRegion
       id="flowRegion4467"><rect
         id="rect4469"
         width="262.29468"
         height="232.02989"
         x="324.26538"
         y="367.61697" /></flowRegion><flowPara
       id="flowPara4471" /></flowRoot>  <text
     xml:space="preserve"
     style="font-style:normal;font-variant:normal;font-weight:300;font-stretch:normal;font-size:30px;line-height:125%;font-family:'GE SS Two';-inkscape-font-specification:'GE SS Two Light';letter-spacing:0px;word-spacing:0px;fill:#0d637a;fill-opacity:1;stroke:none;stroke-width:1px;stroke-linecap:butt;stroke-linejoin:miter;stroke-opacity:1"
     x="1168.7953"
     y="229.92247"
     id="text4877"
     sodipodi:linespacing="125%"><tspan
       sodipodi:role="line"
       id="tspan4879"
       x="1168.7953"
       y="229.92247"> </tspan></text>
  <text
     sodipodi:linespacing="125%"
     id="text4883"
     y="446.23691"
     x="475.82919"
     style="font-style:normal;font-variant:normal;font-weight:300;font-stretch:normal;font-size:30px;line-height:125%;font-family:'GE SS Two';-inkscape-font-specification:'GE SS Two Light';letter-spacing:0px;word-spacing:0px;fill:#0d637a;fill-opacity:1;stroke:none;stroke-width:1px;stroke-linecap:butt;stroke-linejoin:miter;stroke-opacity:1"
     xml:space="preserve"><tspan
       y="446.23691"
       x="475.82919"
       id="tspan4885"
       sodipodi:role="line"> </tspan></text>
  <text
     xml:space="preserve"
     style="font-style:normal;font-variant:normal;font-weight:300;font-stretch:normal;font-size:30px;line-height:125%;font-family:'GE SS Two';-inkscape-font-specification:'GE SS Two Light';letter-spacing:0px;word-spacing:0px;fill:#0d637a;fill-opacity:1;stroke:none;stroke-width:1px;stroke-linecap:butt;stroke-linejoin:miter;stroke-opacity:1"
     x="382.07498"
     y="240.48248"
     id="text4887"
     sodipodi:linespacing="125%"><tspan
       sodipodi:role="line"
       id="tspan4889"
       x="382.07498"
       y="240.48248"> </tspan></text>
  <text
     sodipodi:linespacing="125%"
     id="text4891"
     y="335.94998"
     x="355.57922"
     style="font-style:normal;font-variant:normal;font-weight:300;font-stretch:normal;font-size:30px;line-height:125%;font-family:'GE SS Two';-inkscape-font-specification:'GE SS Two Light';letter-spacing:0px;word-spacing:0px;fill:#0d637a;fill-opacity:1;stroke:none;stroke-width:1px;stroke-linecap:butt;stroke-linejoin:miter;stroke-opacity:1"
     xml:space="preserve"><tspan
       y="335.94998"
       x="355.57922"
       id="tspan4893"
       sodipodi:role="line"> </tspan></text>
  <text
     sodipodi:linespacing="125%"
     id="text4895"
     y="449.47964"
     x="465.51688"
     style="font-style:normal;font-weight:normal;font-size:40px;line-height:125%;font-family:sans-serif;text-align:end;letter-spacing:0px;word-spacing:0px;text-anchor:end;fill:#1490b3;fill-opacity:1;stroke:none;stroke-width:1px;stroke-linecap:butt;stroke-linejoin:miter;stroke-opacity:1"
     xml:space="preserve"><tspan
       style="font-style:normal;font-variant:normal;font-weight:300;font-stretch:normal;font-size:60px;font-family:'GE SS Two';-inkscape-font-specification:'GE SS Two Light';text-align:end;text-anchor:end;fill:#1490b3;fill-opacity:1"
       y="449.47964"
       x="465.51688"
       id="tspan4897"
       sodipodi:role="line">  <tspan
   style="font-size:40px"
   id="tspan4919">   </tspan></tspan></text>
  <text
     sodipodi:linespacing="125%"
     id="text4907"
     y="242.284"
     x="374.20285"
     style="font-style:normal;font-weight:normal;font-size:40px;line-height:125%;font-family:sans-serif;text-align:end;letter-spacing:0px;word-spacing:0px;text-anchor:end;fill:#1490b3;fill-opacity:1;stroke:none;stroke-width:1px;stroke-linecap:butt;stroke-linejoin:miter;stroke-opacity:1"
     xml:space="preserve"><tspan
       style="font-style:normal;font-variant:normal;font-weight:300;font-stretch:normal;font-family:'GE SS Two';-inkscape-font-specification:'GE SS Two Light';text-align:end;text-anchor:end;fill:#1490b3;fill-opacity:1"
       y="242.284"
       x="374.20285"
       id="tspan4909"
       sodipodi:role="line"><tspan
   id="tspan4911"
   style="font-size:60px;text-align:end;text-anchor:end;fill:#1490b3;fill-opacity:1">  </tspan> </tspan></text>
  <flowRoot
     xml:space="preserve"
     id="flowRoot4458"
     style="font-style:normal;font-weight:normal;font-size:40px;line-height:125%;font-family:sans-serif;letter-spacing:0px;word-spacing:0px;fill:#000000;fill-opacity:1;stroke:none;stroke-width:1px;stroke-linecap:butt;stroke-linejoin:miter;stroke-opacity:1"
     transform="translate(46.156309)"><flowRegion
       id="flowRegion4460"><rect
         id="rect4462"
         width="53.50106"
         height="96.81144"
         x="65.220337"
         y="399.07523" /></flowRegion><flowPara
       id="flowPara4464" /></flowRoot>  <text
     xml:space="preserve"
     style="font-style:normal;font-weight:normal;font-size:40px;line-height:125%;font-family:sans-serif;text-align:end;letter-spacing:0px;word-spacing:0px;text-anchor:end;fill:#1490b3;fill-opacity:1;stroke:none;stroke-width:1px;stroke-linecap:butt;stroke-linejoin:miter;stroke-opacity:1"
     x="347.70709"
     y="335.52872"
     id="text4468"
     sodipodi:linespacing="125%"><tspan
       sodipodi:role="line"
       id="tspan4470"
       x="347.70709"
       y="335.52872"
       style="font-style:normal;font-variant:normal;font-weight:300;font-stretch:normal;font-family:'GE SS Two';-inkscape-font-specification:'GE SS Two Light';text-align:end;text-anchor:end;fill:#1490b3;fill-opacity:1"><tspan
   style="font-size:60px;text-align:end;text-anchor:end;fill:#1490b3;fill-opacity:1"
   id="tspan4472"> . </tspan></tspan></text>
  <flowRoot
     xml:space="preserve"
     id="flowRoot4474"
     style="font-style:normal;font-weight:normal;font-size:40px;line-height:125%;font-family:sans-serif;letter-spacing:0px;word-spacing:0px;fill:#000000;fill-opacity:1;stroke:none;stroke-width:1px;stroke-linecap:butt;stroke-linejoin:miter;stroke-opacity:1"
     transform="translate(46.156309)"><flowRegion
       id="flowRegion4476"><rect
         id="rect4478"
         width="77.44915"
         height="62.672668"
         x="78.977753"
         y="418.4375" /></flowRegion><flowPara
       id="flowPara4480" /></flowRoot>  <text
     xml:space="preserve"
     style="font-style:normal;font-weight:normal;font-size:40px;line-height:125%;font-family:sans-serif;text-align:end;letter-spacing:0px;word-spacing:0px;text-anchor:end;fill:#1490b3;fill-opacity:1;stroke:none;stroke-width:1px;stroke-linecap:butt;stroke-linejoin:miter;stroke-opacity:1"
     x="1158.4829"
     y="235.47542"
     id="text4057"
     sodipodi:linespacing="125%"><tspan
       sodipodi:role="line"
       id="tspan4059"
       x="1158.4829"
       y="235.47542"
       style="font-style:normal;font-variant:normal;font-weight:300;font-stretch:normal;font-size:60px;font-family:'GE SS Two';-inkscape-font-specification:'GE SS Two Light';text-align:end;text-anchor:end;fill:#1490b3;fill-opacity:1"> . <tspan
   id="tspan4061"
   style="font-size:40px"></tspan></tspan></text>
  <text
     sodipodi:linespacing="125%"
     id="text4063"
     y="135.14917"
     x="1049.5643"
     style="font-style:normal;font-variant:normal;font-weight:300;font-stretch:normal;font-size:30px;line-height:125%;font-family:'GE SS Two';-inkscape-font-specification:'GE SS Two Light';letter-spacing:0px;word-spacing:0px;fill:#0d637a;fill-opacity:1;stroke:none;stroke-width:1px;stroke-linecap:butt;stroke-linejoin:miter;stroke-opacity:1"
     xml:space="preserve"><tspan
       y="135.14917"
       x="1049.5643"
       id="tspan4065"
       sodipodi:role="line"> </tspan></text>
  <text
     sodipodi:linespacing="125%"
     id="text4067"
     y="140.70212"
     x="1039.252"
     style="font-style:normal;font-weight:normal;font-size:40px;line-height:125%;font-family:sans-serif;text-align:end;letter-spacing:0px;word-spacing:0px;text-anchor:end;fill:#1490b3;fill-opacity:1;stroke:none;stroke-width:1px;stroke-linecap:butt;stroke-linejoin:miter;stroke-opacity:1"
     xml:space="preserve"><tspan
       style="font-style:normal;font-variant:normal;font-weight:300;font-stretch:normal;font-size:60px;font-family:'GE SS Two';-inkscape-font-specification:'GE SS Two Light';text-align:end;text-anchor:end;fill:#1490b3;fill-opacity:1"
       y="140.70212"
       x="1039.252"
       id="tspan4069"
       sodipodi:role="line">  <tspan
   style="font-size:40px"
   id="tspan4071"></tspan></tspan></text>
  <text
     sodipodi:linespacing="125%"
     id="text4073"
     y="331.17957"
     x="1187.1384"
     style="font-style:normal;font-variant:normal;font-weight:300;font-stretch:normal;font-size:30px;line-height:125%;font-family:'GE SS Two';-inkscape-font-specification:'GE SS Two Light';letter-spacing:0px;word-spacing:0px;fill:#0d637a;fill-opacity:1;stroke:none;stroke-width:1px;stroke-linecap:butt;stroke-linejoin:miter;stroke-opacity:1"
     xml:space="preserve"><tspan
       y="331.17957"
       x="1187.1384"
       id="tspan4075"
       sodipodi:role="line"> </tspan></text>
  <text
     xml:space="preserve"
     style="font-style:normal;font-variant:normal;font-weight:300;font-stretch:normal;font-size:30px;line-height:125%;font-family:'GE SS Two';-inkscape-font-specification:'GE SS Two Light';letter-spacing:0px;word-spacing:0px;fill:#0d637a;fill-opacity:1;stroke:none;stroke-width:1px;stroke-linecap:butt;stroke-linejoin:miter;stroke-opacity:1"
     x="1219.7487"
     y="463.3335"
     id="text4077"
     sodipodi:linespacing="125%"><tspan
       sodipodi:role="line"
       id="tspan4079"
       x="1219.7487"
       y="463.3335"> </tspan></text>
  <text
     xml:space="preserve"
     style="font-style:normal;font-weight:normal;font-size:40px;line-height:125%;font-family:sans-serif;text-align:end;letter-spacing:0px;word-spacing:0px;text-anchor:end;fill:#1490b3;fill-opacity:1;stroke:none;stroke-width:1px;stroke-linecap:butt;stroke-linejoin:miter;stroke-opacity:1"
     x="1179.2664"
     y="332.98108"
     id="text4081"
     sodipodi:linespacing="125%"><tspan
       sodipodi:role="line"
       id="tspan4083"
       x="1179.2664"
       y="332.98108"
       style="font-style:normal;font-variant:normal;font-weight:300;font-stretch:normal;font-family:'GE SS Two';-inkscape-font-specification:'GE SS Two Light';text-align:end;text-anchor:end;fill:#1490b3;fill-opacity:1"><tspan
   style="font-size:60px;text-align:end;text-anchor:end;fill:#1490b3;fill-opacity:1"
   id="tspan4085">  </tspan></tspan></text>
  <text
     sodipodi:linespacing="125%"
     id="text4087"
     y="462.91223"
     x="1211.8765"
     style="font-style:normal;font-weight:normal;font-size:40px;line-height:125%;font-family:sans-serif;text-align:end;letter-spacing:0px;word-spacing:0px;text-anchor:end;fill:#1490b3;fill-opacity:1;stroke:none;stroke-width:1px;stroke-linecap:butt;stroke-linejoin:miter;stroke-opacity:1"
     xml:space="preserve"><tspan
       style="font-style:normal;font-variant:normal;font-weight:300;font-stretch:normal;font-family:'GE SS Two';-inkscape-font-specification:'GE SS Two Light';text-align:end;text-anchor:end;fill:#1490b3;fill-opacity:1"
       y="462.91223"
       x="1211.8765"
       id="tspan4089"
       sodipodi:role="line"><tspan
   id="tspan4091"
   style="font-size:60px;text-align:end;text-anchor:end;fill:#1490b3;fill-opacity:1">  </tspan>/</tspan></text>
  <flowRoot
     xml:space="preserve"
     id="flowRoot4093"
     style="font-style:normal;font-weight:normal;font-size:40px;line-height:125%;font-family:sans-serif;letter-spacing:0px;word-spacing:0px;fill:#000000;fill-opacity:1;stroke:none;stroke-width:1px;stroke-linecap:butt;stroke-linejoin:miter;stroke-opacity:1"
     transform="translate(46.156309)"><flowRegion
       id="flowRegion4095"><rect
         id="rect4097"
         width="5.0953388"
         height="75.411018"
         x="185.47034"
         y="473.97668" /></flowRegion><flowPara
       id="flowPara4099" /></flowRoot>  <text
     sodipodi:linespacing="125%"
     id="text4101"
     y="544.9472"
     x="512.79596"
     style="font-style:normal;font-weight:normal;font-size:40px;line-height:125%;font-family:sans-serif;text-align:end;letter-spacing:0px;word-spacing:0px;text-anchor:end;fill:#1490b3;fill-opacity:1;stroke:none;stroke-width:1px;stroke-linecap:butt;stroke-linejoin:miter;stroke-opacity:1"
     xml:space="preserve"><tspan
       style="font-style:normal;font-variant:normal;font-weight:300;font-stretch:normal;font-family:'GE SS Two';-inkscape-font-specification:'GE SS Two Light';text-align:end;text-anchor:end;fill:#1490b3;fill-opacity:1"
       y="544.9472"
       x="512.79596"
       id="tspan4103"
       sodipodi:role="line"><tspan
   id="tspan4105"
   style="font-size:60px;text-align:end;text-anchor:end;fill:#1490b3;fill-opacity:1">  </tspan> </tspan></text>
</svg>
